<svg xmlns="http://www.w3.org/2000/svg" width="30" height="29" viewBox="0 0 29 29" xmlns:v="https://vecta.io/nano">
    <path
        d="M14.457 0C6.461 0 0 6.645 0 14.867c0 6.574 4.141 12.137 9.887 14.105.715.148.98-.32.98-.715l-.023-2.758c-4.023.887-4.859-1.77-4.859-1.77-.648-1.723-1.605-2.168-1.605-2.168-1.316-.91.098-.91.098-.91 1.461.098 2.227 1.527 2.227 1.527 1.293 2.262 3.375 1.625 4.211 1.23.121-.961.504-1.625.91-1.996-3.207-.344-6.582-1.625-6.582-7.336 0-1.621.574-2.953 1.484-3.984-.145-.371-.648-1.898.145-3.941 0 0 1.219-.391 3.973 1.527 1.176-.324 2.391-.492 3.613-.492a13.62 13.62 0 0 1 3.613.492c2.754-1.918 3.973-1.527 3.973-1.527.793 2.043.289 3.57.145 3.941.934 1.031 1.484 2.363 1.484 3.984 0 5.711-3.375 6.969-6.605 7.336.527.469.98 1.355.98 2.758l-.023 4.086c0 .395.262.863.98.715 5.746-1.969 9.887-7.531 9.887-14.105C28.914 6.645 22.426 0 14.457 0zm0 0"
        fill-rule="evenodd" fill="rgb(14.117648%,16.078432%,18.431373%)" />
</svg>