<svg width="194" height="51" viewBox="0 0 194 51" fill="none" xmlns="http://www.w3.org/2000/svg">
<path d="M88.7 32.2991C88.7 39.4839 82.8776 45.3084 75.6953 45.3084C68.513 45.3084 62.6906 39.4839 62.6906 32.2991V2.35306e-07L60 0V32.2991C60 40.9705 67.027 48 75.6953 48C84.3636 48 91.3907 40.9705 91.3907 32.2991C91.3907 23.6277 84.3636 16.5981 75.6953 16.5981H66.7266V19.2897H75.6953C82.8776 19.2897 88.7 25.1142 88.7 32.2991Z" fill="#2E2020"/>
<path fill-rule="evenodd" clip-rule="evenodd" d="M109.778 16.5981C101.109 16.5981 94.082 23.6277 94.082 32.2991C94.082 40.9705 101.109 48 109.778 48C118.446 48 125.473 40.9705 125.473 32.2991C125.473 23.6277 118.446 16.5981 109.778 16.5981ZM96.7727 32.2991C96.7727 25.1142 102.595 19.2897 109.778 19.2897C116.96 19.2897 122.782 25.1142 122.782 32.2991C122.782 39.4839 116.96 45.3084 109.778 45.3084C102.595 45.3084 96.7727 39.4839 96.7727 32.2991Z" fill="#2E2020"/>
<path d="M143.859 45.3084C136.677 45.3084 130.854 39.4839 130.854 32.2991C130.854 25.1142 136.677 19.2897 143.859 19.2897H152.828V16.5981H143.859C135.191 16.5981 128.164 23.6277 128.164 32.2991C128.164 40.9705 135.191 48 143.859 48C152.527 48 159.554 40.9705 159.554 32.2991V0L156.864 2.35306e-07V32.2991C156.864 39.4839 151.041 45.3084 143.859 45.3084Z" fill="#2E2020"/>
<path d="M164.933 32.2991C164.933 25.1142 170.755 19.2897 177.937 19.2897C185.12 19.2897 190.942 25.1142 190.942 32.2991V48H193.633V32.2991C193.633 23.6277 186.606 16.5981 177.937 16.5981C169.269 16.5981 162.242 23.6277 162.242 32.2991C162.242 40.9705 169.269 48 177.937 48H186.906V45.3084H177.937C170.755 45.3084 164.933 39.4839 164.933 32.2991Z" fill="#2E2020"/>
<path fill-rule="evenodd" clip-rule="evenodd" d="M50 6C50 2.68629 47.3137 0 44 0H6C2.68629 0 0 2.68629 0 6V44C0 47.3137 2.68629 50 6 50H44C47.3137 50 50 47.3137 50 44V6ZM6.625 5.88154C6.625 5.46373 6.9637 5.125 7.38151 5.125V5.125C7.79932 5.125 8.13802 5.46373 8.13802 5.88154V5.88154C8.13802 6.29935 7.79932 6.63807 7.38151 6.63807V6.63807C6.9637 6.63807 6.625 6.29935 6.625 5.88154V5.88154ZM15.4512 23.5341C19.4902 23.5341 22.7644 20.2598 22.7644 16.2208C22.7644 12.1819 19.4902 8.90768 15.4512 8.90768H11.1642C10.7464 8.90768 10.4077 8.56896 10.4077 8.15114V8.15114C10.4077 7.73332 10.7464 7.3946 11.1642 7.3946H15.4512C20.3258 7.3946 24.2775 11.3462 24.2775 16.2208C24.2775 21.0954 20.3258 25.0471 15.4512 25.0471C10.5767 25.0471 6.625 21.0954 6.625 16.2208V8.15111C6.625 7.73331 6.9637 7.3946 7.38151 7.3946V7.3946C7.79932 7.3946 8.13802 7.73331 8.13802 8.15111V16.2208C8.13802 20.2598 11.4123 23.5341 15.4512 23.5341ZM34.6168 7.3946C29.7422 7.3946 25.7905 11.3462 25.7905 16.2208C25.7905 21.0954 29.7422 25.0471 34.6168 25.0471C39.4914 25.0471 43.443 21.0954 43.443 16.2208C43.443 11.3462 39.4914 7.3946 34.6168 7.3946ZM27.3036 16.2208C27.3036 12.1819 30.5778 8.90768 34.6168 8.90768C38.6557 8.90768 41.93 12.1819 41.93 16.2208C41.93 20.2598 38.6557 23.5341 34.6168 23.5341C30.5778 23.5341 27.3036 20.2598 27.3036 16.2208ZM8.13802 36.1429C8.13802 40.1819 11.4123 43.4561 15.4512 43.4561C19.4902 43.4561 22.7644 40.1819 22.7644 36.1429V28.0732C22.7644 27.6554 23.1031 27.3167 23.5209 27.3167V27.3167C23.9388 27.3167 24.2775 27.6554 24.2775 28.0732V36.1429C24.2775 41.0175 20.3258 44.9692 15.4512 44.9692C10.5767 44.9692 6.625 41.0175 6.625 36.1429C6.625 31.2683 10.5767 27.3167 15.4512 27.3167H19.7382C20.1561 27.3167 20.4948 27.6554 20.4948 28.0732V28.0732C20.4948 28.4911 20.1561 28.8298 19.7382 28.8298H15.4512C11.4123 28.8298 8.13802 32.104 8.13802 36.1429ZM27.3036 36.1429C27.3036 32.104 30.5778 28.8298 34.6168 28.8298C38.6557 28.8298 41.93 32.104 41.93 36.1429V44.2127C41.93 44.6305 42.2687 44.9692 42.6865 44.9692V44.9692C43.1043 44.9692 43.443 44.6305 43.443 44.2127V36.1429C43.443 31.2683 39.4914 27.3167 34.6168 27.3167C29.7422 27.3167 25.7905 31.2683 25.7905 36.1429C25.7905 41.0175 29.7422 44.9692 34.6168 44.9692H38.9039C39.3217 44.9692 39.6604 44.6305 39.6604 44.2127V44.2127C39.6604 43.7948 39.3217 43.4561 38.9039 43.4561H34.6168C30.5778 43.4561 27.3036 40.1819 27.3036 36.1429ZM24.2775 25.8036C24.2775 25.3858 23.9388 25.0471 23.5209 25.0471V25.0471C23.1031 25.0471 22.7644 25.3858 22.7644 25.8036V25.8036C22.7644 26.2215 23.1031 26.5602 23.5209 26.5602V26.5602C23.9388 26.5602 24.2775 26.2215 24.2775 25.8036V25.8036Z" fill="#2AEDBE"/>
</svg>
